<?xml version="1.0" encoding="utf-8"?>
<!-- Svg Vector Icons : http://www.onlinewebfonts.com/icon -->
<!DOCTYPE svg PUBLIC "-//W3C//DTD SVG 1.1//EN" "http://www.w3.org/Graphics/SVG/1.1/DTD/svg11.dtd">
<svg version="1.1" xmlns="http://www.w3.org/2000/svg" xmlns:xlink="http://www.w3.org/1999/xlink" x="0px" y="0px" viewBox="0 0 1000 1000" enable-background="new 0 0 1000 1000" xml:space="preserve">
<metadata> Svg Vector Icons : http://www.onlinewebfonts.com/icon </metadata>
<g><path d="M990,173.3C990,83.1,916.9,10,826.7,10H173.3C83.1,10,10,83.1,10,173.3v653.3C10,916.9,83.1,990,173.3,990h653.3c90.2,0,163.3-73.1,163.3-163.3V173.3z M908.2,798c0,61.5-49.9,111.4-111.4,111.4H202c-61.5,0-111.4-49.9-111.4-111.4V203.1c0-61.5,49.9-111.4,111.4-111.4h594.9c61.5,0,111.4,49.9,111.4,111.4L908.2,798L908.2,798z"/><path d="M588.3,379.8c0-83.9-69-151.8-154.2-151.8c-3.9,0-7.7,0.3-11.5,0.6H286.4v0.3h-69.7v556.6h78.2V531.1h127.1c6,0.7,5.9,0.5,12,0.5C519.3,531.6,588.3,463.7,588.3,379.8z M422.1,452.9H294.9V306.2h127.1c37.2,1.7,71.2,35.7,71.2,72.7S459.2,451.1,422.1,452.9z M778.7,648.4c-2.5-4.9-9.3-10.6-9.3-10.6l-28.1-75.1c-5.8-14.2-23-21.7-30.4-21.7H563.5c-7.5,0-24.6,7.5-30.4,21.7L505,637.8c0,0-6.8,5.6-9.3,10.6c-2.5,4.9-5.2,9.3-5.2,42.6c0,32.5,6.5,44,14.3,48l6.2,3.5v30.2c0,9.8,2.3,12.7,11.6,12.7h20.8c9.3,0,15.5,0,15.5-9.7v-29.3h156.5v29.3c0,9.8,6.3,9.7,15.5,9.7h20.8c9.3,0,11.6-2.9,11.6-12.7v-30.2l6.2-3.5c7.8-4,14.3-15.6,14.3-48C783.9,657.7,781.2,653.3,778.7,648.4z M530.8,632.6c1.3-4.8,10.1-42.2,13.9-55.1c1.6-4.5,12-17.8,24-17h136.9c12.1-0.8,22.5,12.6,24,17c3.9,13,12.6,50.3,14,55.1c1.6,5.7-3.6,5.2-3.6,5.2H534.4C534.4,637.8,529.2,638.3,530.8,632.6z M545.4,706.7c-10,0-18.1-8.3-18.1-18.6c0-10.2,8.1-18.6,18.1-18.6c10,0,18.1,8.3,18.1,18.6C563.5,698.4,555.4,706.7,545.4,706.7z M666.6,717h-58.7v-9.8h58.7V717z M666.6,697.4h-58.7v-9.8h58.7V697.4z M666.6,677.9h-58.7v-9.8h58.7V677.9z M729.7,706.7c-10,0-18.1-8.3-18.1-18.6c0-10.2,8.1-18.6,18.1-18.6c10,0,18.1,8.3,18.1,18.6C747.8,698.4,739.7,706.7,729.7,706.7z"/></g>
</svg>